<svg xmlns="http://www.w3.org/2000/svg" xmlns:xlink="http://www.w3.org/1999/xlink" width="500" zoomAndPan="magnify" viewBox="0 0 375 374.999991" height="500" preserveAspectRatio="xMidYMid meet" version="1.0"><defs><g/><clipPath id="5d16387b59"><path d="M 102.636719 140 L 268.042969 140 L 268.042969 200.789062 L 102.636719 200.789062 Z M 102.636719 140 " clip-rule="nonzero"/></clipPath></defs><g clip-path="url(#5d16387b59)"><path fill="#ffffff" d="M 268.472656 152.742188 C 265.375 151.414062 262.167969 150.304688 258.847656 149.3125 C 257.1875 148.757812 255.527344 148.425781 253.871094 147.871094 C 252.210938 147.429688 250.441406 147.097656 248.78125 146.65625 C 241.921875 145.105469 234.953125 144 227.980469 143.003906 C 213.933594 141.234375 199.773438 140.460938 185.609375 140.351562 C 171.449219 140.351562 157.179688 141.125 143.238281 142.894531 C 136.269531 143.777344 129.300781 144.996094 122.441406 146.546875 C 120.78125 146.988281 119.011719 147.320312 117.351562 147.761719 C 115.691406 148.203125 114.035156 148.648438 112.375 149.199219 C 109.054688 150.195312 105.847656 151.300781 102.75 152.628906 C 116.578125 150.304688 130.296875 149.199219 144.125 148.425781 C 156.40625 147.761719 168.683594 147.429688 181.074219 147.429688 L 180.300781 173.316406 C 180.191406 179.84375 172.886719 183.714844 167.46875 180.066406 C 160.167969 175.085938 155.960938 169.222656 154.746094 167.011719 C 154.855469 167.011719 159.390625 168.226562 162.046875 168.558594 C 156.515625 165.019531 151.757812 157.828125 150.984375 153.292969 C 146.449219 159.265625 147.222656 169.777344 148.109375 174.535156 L 150.761719 170.441406 C 156.738281 188.140625 183.398438 196.660156 185.832031 200.753906 C 188.265625 196.660156 214.929688 188.140625 220.902344 170.441406 L 223.558594 174.535156 C 224.441406 169.777344 225.214844 159.265625 220.679688 153.292969 C 219.796875 157.828125 215.148438 164.910156 209.617188 168.558594 C 212.273438 168.226562 216.808594 167.011719 216.917969 167.011719 C 215.589844 169.222656 211.5 175.085938 204.085938 180.066406 C 198.664062 183.714844 191.363281 179.84375 191.253906 173.316406 L 190.480469 147.429688 C 202.757812 147.539062 215.039062 147.761719 227.320312 148.425781 C 240.925781 149.3125 254.644531 150.417969 268.472656 152.742188 Z M 268.472656 152.742188 " fill-opacity="1" fill-rule="nonzero"/></g><path fill="#ffffff" d="M 185.5 95.875 C 187.492188 95.875 189.039062 97.535156 189.039062 99.527344 C 188.929688 101.519531 187.269531 102.957031 185.277344 102.847656 C 183.398438 102.734375 181.960938 101.1875 181.960938 99.304688 C 181.960938 97.425781 183.507812 95.875 185.5 95.875 Z M 181.1875 136.808594 C 182.625 136.808594 184.0625 136.808594 185.5 136.808594 C 186.9375 136.808594 188.375 136.808594 189.816406 136.808594 L 189.371094 120.324219 L 204.859375 119 L 204.859375 114.574219 L 189.152344 113.136719 L 189.039062 110.257812 C 193.578125 108.820312 196.785156 104.503906 196.785156 99.527344 C 196.785156 93 191.363281 87.910156 184.726562 88.242188 C 179.195312 88.574219 174.660156 93 174.214844 98.421875 C 173.773438 103.84375 177.09375 108.597656 181.960938 110.148438 L 181.851562 113.023438 L 166.140625 114.460938 L 166.140625 118.886719 L 181.628906 120.214844 Z M 181.1875 136.808594 " fill-opacity="1" fill-rule="nonzero"/><g fill="#ffffff" fill-opacity="1"><g transform="translate(89.991782, 261.016292)"><g><path d="M 5.515625 -0.46875 C 5.515625 -0.1875 5.550781 -0.0234375 5.625 0.015625 C 5.675781 0.0351562 5.742188 0.046875 5.828125 0.046875 L 5.828125 -1.84375 L 5.578125 -1.84375 C 5.234375 -0.738281 4.550781 -0.1875 3.53125 -0.1875 C 2.65625 -0.1875 2.0625 -0.625 1.75 -1.5 C 1.59375 -1.925781 1.515625 -2.429688 1.515625 -3.015625 C 1.515625 -4.265625 1.859375 -5.117188 2.546875 -5.578125 C 2.847656 -5.765625 3.1875 -5.859375 3.5625 -5.859375 C 4.394531 -5.859375 5 -5.460938 5.375 -4.671875 C 5.445312 -4.523438 5.503906 -4.378906 5.546875 -4.234375 L 5.796875 -4.234375 L 5.765625 -6.078125 C 5.617188 -6.078125 5.523438 -6.03125 5.484375 -5.9375 C 5.460938 -5.863281 5.453125 -5.734375 5.453125 -5.546875 C 5.265625 -5.742188 4.9375 -5.898438 4.46875 -6.015625 C 4.15625 -6.097656 3.835938 -6.140625 3.515625 -6.140625 C 2.460938 -6.140625 1.65625 -5.742188 1.09375 -4.953125 C 0.695312 -4.398438 0.5 -3.757812 0.5 -3.03125 C 0.5 -2.15625 0.769531 -1.421875 1.3125 -0.828125 C 1.894531 -0.210938 2.644531 0.09375 3.5625 0.09375 C 4.238281 0.09375 4.890625 -0.09375 5.515625 -0.46875 Z M 5.515625 -0.46875 "/></g></g></g><g fill="#ffffff" fill-opacity="1"><g transform="translate(97.329068, 261.016292)"><g><path d="M 3.5625 -6.140625 C 2.757812 -6.140625 2.070312 -5.875 1.5 -5.34375 C 0.863281 -4.757812 0.546875 -4 0.546875 -3.0625 C 0.546875 -1.96875 0.921875 -1.128906 1.671875 -0.546875 C 2.210938 -0.117188 2.835938 0.09375 3.546875 0.09375 C 4.328125 0.09375 5.003906 -0.171875 5.578125 -0.703125 C 6.210938 -1.296875 6.53125 -2.066406 6.53125 -3.015625 C 6.53125 -4.117188 6.144531 -4.960938 5.375 -5.546875 C 4.851562 -5.941406 4.25 -6.140625 3.5625 -6.140625 Z M 3.5625 -0.1875 C 2.59375 -0.1875 1.972656 -0.703125 1.703125 -1.734375 C 1.609375 -2.109375 1.5625 -2.535156 1.5625 -3.015625 C 1.5625 -4.609375 2.039062 -5.535156 3 -5.796875 C 3.175781 -5.835938 3.359375 -5.859375 3.546875 -5.859375 C 4.859375 -5.835938 5.519531 -4.90625 5.53125 -3.0625 C 5.53125 -1.59375 5.125 -0.679688 4.3125 -0.328125 C 4.082031 -0.234375 3.832031 -0.1875 3.5625 -0.1875 Z M 3.5625 -0.1875 "/></g></g></g><g fill="#ffffff" fill-opacity="1"><g transform="translate(105.481059, 261.016292)"><g><path d="M 4.5625 -5.765625 L 5.421875 -5.765625 L 5.421875 -1.265625 L 1.59375 -6.03125 L 0.203125 -6.03125 L 0.203125 -5.765625 L 1 -5.765625 L 1 -0.265625 L 0.203125 -0.265625 L 0.203125 0 L 2.265625 0 C 2.265625 -0.144531 2.210938 -0.226562 2.109375 -0.25 C 2.066406 -0.257812 2.03125 -0.265625 2 -0.265625 L 1.40625 -0.265625 L 1.40625 -4.921875 L 5.359375 0.046875 L 5.828125 -0.046875 L 5.828125 -5.765625 L 6.625 -5.765625 L 6.625 -6.03125 L 4.5625 -6.03125 Z M 4.5625 -5.765625 "/></g></g></g><g fill="#ffffff" fill-opacity="1"><g transform="translate(113.270959, 261.016292)"><g><path d="M 4.890625 -1.578125 C 4.890625 -2.171875 4.566406 -2.648438 3.921875 -3.015625 C 3.796875 -3.085938 3.40625 -3.265625 2.75 -3.546875 C 2.144531 -3.804688 1.769531 -4.066406 1.625 -4.328125 C 1.539062 -4.484375 1.5 -4.644531 1.5 -4.8125 C 1.5 -5.257812 1.71875 -5.566406 2.15625 -5.734375 C 2.34375 -5.816406 2.550781 -5.859375 2.78125 -5.859375 C 3.34375 -5.859375 3.769531 -5.664062 4.0625 -5.28125 C 4.257812 -5.019531 4.351562 -4.703125 4.34375 -4.328125 L 4.640625 -4.328125 L 4.640625 -6.078125 C 4.484375 -6.078125 4.390625 -6.03125 4.359375 -5.9375 C 4.347656 -5.882812 4.34375 -5.816406 4.34375 -5.734375 C 3.863281 -6.003906 3.328125 -6.140625 2.734375 -6.140625 C 2.015625 -6.140625 1.453125 -5.9375 1.046875 -5.53125 C 0.773438 -5.25 0.640625 -4.921875 0.640625 -4.546875 C 0.640625 -3.984375 0.957031 -3.523438 1.59375 -3.171875 C 1.707031 -3.109375 2.085938 -2.9375 2.734375 -2.65625 C 3.335938 -2.382812 3.71875 -2.113281 3.875 -1.84375 C 3.96875 -1.6875 4.015625 -1.519531 4.015625 -1.34375 C 4.015625 -0.875 3.785156 -0.535156 3.328125 -0.328125 C 3.109375 -0.234375 2.867188 -0.1875 2.609375 -0.1875 C 1.585938 -0.195312 1.019531 -0.820312 0.90625 -2.0625 L 0.609375 -2.0625 L 0.609375 0.015625 C 0.765625 0.015625 0.859375 -0.03125 0.890625 -0.125 C 0.898438 -0.175781 0.90625 -0.269531 0.90625 -0.40625 C 1.414062 -0.0703125 2.003906 0.09375 2.671875 0.09375 C 3.441406 0.09375 4.035156 -0.109375 4.453125 -0.515625 C 4.742188 -0.816406 4.890625 -1.171875 4.890625 -1.578125 Z M 4.890625 -1.578125 "/></g></g></g><g fill="#ffffff" fill-opacity="1"><g transform="translate(119.723133, 261.016292)"><g><path d="M 0.09375 -5.765625 L 0.90625 -5.765625 L 0.90625 -2.265625 C 0.914062 -0.691406 1.695312 0.09375 3.25 0.09375 C 4.425781 0.09375 5.140625 -0.382812 5.390625 -1.34375 C 5.460938 -1.644531 5.5 -1.984375 5.5 -2.359375 L 5.5 -5.765625 L 6.3125 -5.765625 L 6.3125 -6.03125 L 4.34375 -6.03125 L 4.34375 -5.765625 L 5.15625 -5.765625 L 5.15625 -2.296875 C 5.15625 -0.992188 4.671875 -0.289062 3.703125 -0.1875 C 3.617188 -0.1875 3.535156 -0.1875 3.453125 -0.1875 C 2.640625 -0.1875 2.125 -0.53125 1.90625 -1.21875 C 1.8125 -1.519531 1.765625 -1.890625 1.765625 -2.328125 L 1.765625 -5.765625 L 2.5625 -5.765625 L 2.5625 -6.03125 L 0.09375 -6.03125 Z M 0.09375 -5.765625 "/></g></g></g><g fill="#ffffff" fill-opacity="1"><g transform="translate(127.140884, 261.016292)"><g><path d="M 4.8125 0 L 4.859375 -2.015625 L 4.65625 -2.015625 L 4.484375 -1.34375 C 4.328125 -0.71875 4.0625 -0.363281 3.6875 -0.28125 C 3.601562 -0.269531 3.523438 -0.265625 3.453125 -0.265625 L 2.078125 -0.265625 L 2.078125 -5.765625 L 2.921875 -5.765625 L 2.921875 -6.03125 L 0.40625 -6.03125 L 0.40625 -5.765625 L 1.203125 -5.765625 L 1.203125 -0.265625 L 0.40625 -0.265625 L 0.40625 0 Z M 4.8125 0 "/></g></g></g><g fill="#ffffff" fill-opacity="1"><g transform="translate(133.16056, 261.016292)"><g><path d="M 4.25 0 C 4.25 -0.144531 4.191406 -0.226562 4.078125 -0.25 C 4.046875 -0.257812 4.015625 -0.265625 3.984375 -0.265625 L 3.296875 -0.265625 L 3.296875 -5.765625 L 3.875 -5.765625 C 4.425781 -5.765625 4.789062 -5.4375 4.96875 -4.78125 C 4.96875 -4.757812 4.972656 -4.738281 4.984375 -4.71875 L 5.140625 -4.046875 L 5.421875 -4.046875 L 5.375 -6.03125 L 0.40625 -6.03125 L 0.359375 -4.046875 L 0.640625 -4.046875 L 0.796875 -4.71875 C 1.003906 -5.382812 1.367188 -5.734375 1.890625 -5.765625 L 2.4375 -5.765625 L 2.4375 -0.265625 L 1.484375 -0.265625 L 1.484375 0 Z M 4.25 0 "/></g></g></g><g fill="#ffffff" fill-opacity="1"><g transform="translate(139.994939, 261.016292)"><g><path d="M 3.5625 -6.140625 C 2.757812 -6.140625 2.070312 -5.875 1.5 -5.34375 C 0.863281 -4.757812 0.546875 -4 0.546875 -3.0625 C 0.546875 -1.96875 0.921875 -1.128906 1.671875 -0.546875 C 2.210938 -0.117188 2.835938 0.09375 3.546875 0.09375 C 4.328125 0.09375 5.003906 -0.171875 5.578125 -0.703125 C 6.210938 -1.296875 6.53125 -2.066406 6.53125 -3.015625 C 6.53125 -4.117188 6.144531 -4.960938 5.375 -5.546875 C 4.851562 -5.941406 4.25 -6.140625 3.5625 -6.140625 Z M 3.5625 -0.1875 C 2.59375 -0.1875 1.972656 -0.703125 1.703125 -1.734375 C 1.609375 -2.109375 1.5625 -2.535156 1.5625 -3.015625 C 1.5625 -4.609375 2.039062 -5.535156 3 -5.796875 C 3.175781 -5.835938 3.359375 -5.859375 3.546875 -5.859375 C 4.859375 -5.835938 5.519531 -4.90625 5.53125 -3.0625 C 5.53125 -1.59375 5.125 -0.679688 4.3125 -0.328125 C 4.082031 -0.234375 3.832031 -0.1875 3.5625 -0.1875 Z M 3.5625 -0.1875 "/></g></g></g><g fill="#ffffff" fill-opacity="1"><g transform="translate(148.146931, 261.016292)"><g><path d="M 2.859375 0 L 2.859375 -0.265625 L 2.078125 -0.265625 L 2.078125 -2.765625 L 3.03125 -2.765625 L 4.640625 0 L 6.15625 0 C 6.15625 -0.144531 6.113281 -0.226562 6.03125 -0.25 C 6 -0.257812 5.957031 -0.265625 5.90625 -0.265625 L 5.53125 -0.265625 L 3.90625 -2.859375 C 4.539062 -3.015625 4.976562 -3.34375 5.21875 -3.84375 C 5.300781 -4.050781 5.34375 -4.257812 5.34375 -4.46875 C 5.34375 -4.96875 5.128906 -5.367188 4.703125 -5.671875 C 4.335938 -5.910156 3.894531 -6.03125 3.375 -6.03125 L 0.40625 -6.03125 L 0.40625 -5.765625 L 1.203125 -5.765625 L 1.203125 -0.265625 L 0.40625 -0.265625 L 0.40625 0 Z M 3.078125 -5.765625 C 3.648438 -5.765625 4.050781 -5.53125 4.28125 -5.0625 C 4.363281 -4.875 4.40625 -4.671875 4.40625 -4.453125 C 4.40625 -3.972656 4.238281 -3.597656 3.90625 -3.328125 C 3.675781 -3.148438 3.410156 -3.0625 3.109375 -3.0625 L 2.078125 -3.0625 L 2.078125 -5.765625 Z M 3.078125 -5.765625 "/></g></g></g><g fill="#ffffff" fill-opacity="1"><g transform="translate(155.36352, 261.016292)"><g><path d="M 6.15625 0 C 6.15625 -0.144531 6.101562 -0.226562 6 -0.25 C 5.96875 -0.257812 5.9375 -0.265625 5.90625 -0.265625 L 5.5625 -0.265625 L 3.265625 -6.03125 L 2.890625 -6.03125 L 0.640625 -0.265625 L 0 -0.265625 L 0 0 L 1.796875 0 C 1.796875 -0.144531 1.738281 -0.226562 1.625 -0.25 C 1.59375 -0.257812 1.5625 -0.265625 1.53125 -0.265625 L 1.03125 -0.265625 L 1.796875 -2.21875 L 3.890625 -2.21875 L 4.640625 -0.265625 L 3.984375 -0.265625 L 3.984375 0 Z M 3.78125 -2.5 L 1.90625 -2.5 L 2.828125 -4.9375 Z M 3.78125 -2.5 "/></g></g></g><g fill="#ffffff" fill-opacity="1"><g transform="translate(162.590167, 261.016292)"><g/></g></g><g fill="#ffffff" fill-opacity="1"><g transform="translate(165.612531, 261.016292)"><g><path d="M 0.40625 -6.03125 L 0.40625 -5.765625 L 1.203125 -5.765625 L 1.203125 -0.265625 L 0.40625 -0.265625 L 0.40625 0 L 3.171875 0 C 4.078125 0 4.820312 -0.28125 5.40625 -0.84375 C 5.988281 -1.394531 6.28125 -2.117188 6.28125 -3.015625 C 6.28125 -4.171875 5.851562 -5.015625 5 -5.546875 C 4.488281 -5.867188 3.890625 -6.03125 3.203125 -6.03125 Z M 3.171875 -5.765625 C 4.234375 -5.765625 4.894531 -5.285156 5.15625 -4.328125 C 5.257812 -3.972656 5.3125 -3.550781 5.3125 -3.0625 C 5.3125 -1.382812 4.738281 -0.460938 3.59375 -0.296875 C 3.46875 -0.273438 3.335938 -0.265625 3.203125 -0.265625 L 2.078125 -0.265625 L 2.078125 -5.765625 Z M 3.171875 -5.765625 "/></g></g></g><g fill="#ffffff" fill-opacity="1"><g transform="translate(173.503013, 261.016292)"><g><path d="M 5.09375 -4.21875 L 5.03125 -6.03125 L 0.40625 -6.03125 L 0.40625 -5.765625 L 1.203125 -5.765625 L 1.203125 -0.265625 L 0.40625 -0.265625 L 0.40625 0 L 5.03125 0 L 5.09375 -1.8125 L 4.890625 -1.8125 L 4.75 -1.34375 C 4.582031 -0.769531 4.332031 -0.425781 4 -0.3125 C 3.894531 -0.28125 3.789062 -0.265625 3.6875 -0.265625 L 2.078125 -0.265625 L 2.078125 -2.96875 L 4.140625 -2.96875 L 4.140625 -3.265625 L 2.078125 -3.265625 L 2.078125 -5.765625 L 3.6875 -5.765625 C 4.164062 -5.765625 4.507812 -5.441406 4.71875 -4.796875 C 4.726562 -4.753906 4.738281 -4.722656 4.75 -4.703125 L 4.890625 -4.21875 Z M 5.09375 -4.21875 "/></g></g></g><g fill="#ffffff" fill-opacity="1"><g transform="translate(180.156349, 261.016292)"><g/></g></g><g fill="#ffffff" fill-opacity="1"><g transform="translate(183.178707, 261.016292)"><g><path d="M 3.234375 0.046875 L 5.296875 -5.765625 L 5.796875 -5.765625 L 5.796875 -6.03125 L 4.109375 -6.03125 L 4.109375 -5.765625 L 4.921875 -5.765625 L 3.234375 -1.03125 L 1.421875 -5.765625 L 2.21875 -5.765625 L 2.21875 -6.03125 L -0.046875 -6.03125 L -0.046875 -5.765625 L 0.546875 -5.765625 L 2.46875 -0.6875 C 2.613281 -0.289062 2.738281 -0.0664062 2.84375 -0.015625 C 2.914062 0.0234375 3.003906 0.046875 3.109375 0.046875 Z M 3.234375 0.046875 "/></g></g></g><g fill="#ffffff" fill-opacity="1"><g transform="translate(190.043258, 261.016292)"><g><path d="M 5.09375 -4.21875 L 5.03125 -6.03125 L 0.40625 -6.03125 L 0.40625 -5.765625 L 1.203125 -5.765625 L 1.203125 -0.265625 L 0.40625 -0.265625 L 0.40625 0 L 5.03125 0 L 5.09375 -1.8125 L 4.890625 -1.8125 L 4.75 -1.34375 C 4.582031 -0.769531 4.332031 -0.425781 4 -0.3125 C 3.894531 -0.28125 3.789062 -0.265625 3.6875 -0.265625 L 2.078125 -0.265625 L 2.078125 -2.96875 L 4.140625 -2.96875 L 4.140625 -3.265625 L 2.078125 -3.265625 L 2.078125 -5.765625 L 3.6875 -5.765625 C 4.164062 -5.765625 4.507812 -5.441406 4.71875 -4.796875 C 4.726562 -4.753906 4.738281 -4.722656 4.75 -4.703125 L 4.890625 -4.21875 Z M 5.09375 -4.21875 "/></g></g></g><g fill="#ffffff" fill-opacity="1"><g transform="translate(196.696594, 261.016292)"><g><path d="M 4.5625 -5.765625 L 5.421875 -5.765625 L 5.421875 -1.265625 L 1.59375 -6.03125 L 0.203125 -6.03125 L 0.203125 -5.765625 L 1 -5.765625 L 1 -0.265625 L 0.203125 -0.265625 L 0.203125 0 L 2.265625 0 C 2.265625 -0.144531 2.210938 -0.226562 2.109375 -0.25 C 2.066406 -0.257812 2.03125 -0.265625 2 -0.265625 L 1.40625 -0.265625 L 1.40625 -4.921875 L 5.359375 0.046875 L 5.828125 -0.046875 L 5.828125 -5.765625 L 6.625 -5.765625 L 6.625 -6.03125 L 4.5625 -6.03125 Z M 4.5625 -5.765625 "/></g></g></g><g fill="#ffffff" fill-opacity="1"><g transform="translate(204.486489, 261.016292)"><g><path d="M 0.40625 -6.03125 L 0.40625 -5.765625 L 1.203125 -5.765625 L 1.203125 -0.265625 L 0.40625 -0.265625 L 0.40625 0 L 3.171875 0 C 4.078125 0 4.820312 -0.28125 5.40625 -0.84375 C 5.988281 -1.394531 6.28125 -2.117188 6.28125 -3.015625 C 6.28125 -4.171875 5.851562 -5.015625 5 -5.546875 C 4.488281 -5.867188 3.890625 -6.03125 3.203125 -6.03125 Z M 3.171875 -5.765625 C 4.234375 -5.765625 4.894531 -5.285156 5.15625 -4.328125 C 5.257812 -3.972656 5.3125 -3.550781 5.3125 -3.0625 C 5.3125 -1.382812 4.738281 -0.460938 3.59375 -0.296875 C 3.46875 -0.273438 3.335938 -0.265625 3.203125 -0.265625 L 2.078125 -0.265625 L 2.078125 -5.765625 Z M 3.171875 -5.765625 "/></g></g></g><g fill="#ffffff" fill-opacity="1"><g transform="translate(212.376965, 261.016292)"><g><path d="M 6.15625 0 C 6.15625 -0.144531 6.101562 -0.226562 6 -0.25 C 5.96875 -0.257812 5.9375 -0.265625 5.90625 -0.265625 L 5.5625 -0.265625 L 3.265625 -6.03125 L 2.890625 -6.03125 L 0.640625 -0.265625 L 0 -0.265625 L 0 0 L 1.796875 0 C 1.796875 -0.144531 1.738281 -0.226562 1.625 -0.25 C 1.59375 -0.257812 1.5625 -0.265625 1.53125 -0.265625 L 1.03125 -0.265625 L 1.796875 -2.21875 L 3.890625 -2.21875 L 4.640625 -0.265625 L 3.984375 -0.265625 L 3.984375 0 Z M 3.78125 -2.5 L 1.90625 -2.5 L 2.828125 -4.9375 Z M 3.78125 -2.5 "/></g></g></g><g fill="#ffffff" fill-opacity="1"><g transform="translate(219.603607, 261.016292)"><g><path d="M 4.890625 -1.578125 C 4.890625 -2.171875 4.566406 -2.648438 3.921875 -3.015625 C 3.796875 -3.085938 3.40625 -3.265625 2.75 -3.546875 C 2.144531 -3.804688 1.769531 -4.066406 1.625 -4.328125 C 1.539062 -4.484375 1.5 -4.644531 1.5 -4.8125 C 1.5 -5.257812 1.71875 -5.566406 2.15625 -5.734375 C 2.34375 -5.816406 2.550781 -5.859375 2.78125 -5.859375 C 3.34375 -5.859375 3.769531 -5.664062 4.0625 -5.28125 C 4.257812 -5.019531 4.351562 -4.703125 4.34375 -4.328125 L 4.640625 -4.328125 L 4.640625 -6.078125 C 4.484375 -6.078125 4.390625 -6.03125 4.359375 -5.9375 C 4.347656 -5.882812 4.34375 -5.816406 4.34375 -5.734375 C 3.863281 -6.003906 3.328125 -6.140625 2.734375 -6.140625 C 2.015625 -6.140625 1.453125 -5.9375 1.046875 -5.53125 C 0.773438 -5.25 0.640625 -4.921875 0.640625 -4.546875 C 0.640625 -3.984375 0.957031 -3.523438 1.59375 -3.171875 C 1.707031 -3.109375 2.085938 -2.9375 2.734375 -2.65625 C 3.335938 -2.382812 3.71875 -2.113281 3.875 -1.84375 C 3.96875 -1.6875 4.015625 -1.519531 4.015625 -1.34375 C 4.015625 -0.875 3.785156 -0.535156 3.328125 -0.328125 C 3.109375 -0.234375 2.867188 -0.1875 2.609375 -0.1875 C 1.585938 -0.195312 1.019531 -0.820312 0.90625 -2.0625 L 0.609375 -2.0625 L 0.609375 0.015625 C 0.765625 0.015625 0.859375 -0.03125 0.890625 -0.125 C 0.898438 -0.175781 0.90625 -0.269531 0.90625 -0.40625 C 1.414062 -0.0703125 2.003906 0.09375 2.671875 0.09375 C 3.441406 0.09375 4.035156 -0.109375 4.453125 -0.515625 C 4.742188 -0.816406 4.890625 -1.171875 4.890625 -1.578125 Z M 4.890625 -1.578125 "/></g></g></g><g fill="#ffffff" fill-opacity="1"><g transform="translate(226.055781, 261.016292)"><g/></g></g><g fill="#ffffff" fill-opacity="1"><g transform="translate(229.078139, 261.016292)"><g><path d="M 6.15625 0 C 6.15625 -0.144531 6.101562 -0.226562 6 -0.25 C 5.96875 -0.257812 5.9375 -0.265625 5.90625 -0.265625 L 5.5625 -0.265625 L 3.265625 -6.03125 L 2.890625 -6.03125 L 0.640625 -0.265625 L 0 -0.265625 L 0 0 L 1.796875 0 C 1.796875 -0.144531 1.738281 -0.226562 1.625 -0.25 C 1.59375 -0.257812 1.5625 -0.265625 1.53125 -0.265625 L 1.03125 -0.265625 L 1.796875 -2.21875 L 3.890625 -2.21875 L 4.640625 -0.265625 L 3.984375 -0.265625 L 3.984375 0 Z M 3.78125 -2.5 L 1.90625 -2.5 L 2.828125 -4.9375 Z M 3.78125 -2.5 "/></g></g></g><g fill="#ffffff" fill-opacity="1"><g transform="translate(236.304781, 261.016292)"><g><path d="M 4.25 0 C 4.25 -0.144531 4.191406 -0.226562 4.078125 -0.25 C 4.046875 -0.257812 4.015625 -0.265625 3.984375 -0.265625 L 3.296875 -0.265625 L 3.296875 -5.765625 L 3.875 -5.765625 C 4.425781 -5.765625 4.789062 -5.4375 4.96875 -4.78125 C 4.96875 -4.757812 4.972656 -4.738281 4.984375 -4.71875 L 5.140625 -4.046875 L 5.421875 -4.046875 L 5.375 -6.03125 L 0.40625 -6.03125 L 0.359375 -4.046875 L 0.640625 -4.046875 L 0.796875 -4.71875 C 1.003906 -5.382812 1.367188 -5.734375 1.890625 -5.765625 L 2.4375 -5.765625 L 2.4375 -0.265625 L 1.484375 -0.265625 L 1.484375 0 Z M 4.25 0 "/></g></g></g><g fill="#ffffff" fill-opacity="1"><g transform="translate(243.139163, 261.016292)"><g><path d="M 6.15625 0 C 6.15625 -0.144531 6.101562 -0.226562 6 -0.25 C 5.96875 -0.257812 5.9375 -0.265625 5.90625 -0.265625 L 5.5625 -0.265625 L 3.265625 -6.03125 L 2.890625 -6.03125 L 0.640625 -0.265625 L 0 -0.265625 L 0 0 L 1.796875 0 C 1.796875 -0.144531 1.738281 -0.226562 1.625 -0.25 C 1.59375 -0.257812 1.5625 -0.265625 1.53125 -0.265625 L 1.03125 -0.265625 L 1.796875 -2.21875 L 3.890625 -2.21875 L 4.640625 -0.265625 L 3.984375 -0.265625 L 3.984375 0 Z M 3.78125 -2.5 L 1.90625 -2.5 L 2.828125 -4.9375 Z M 3.78125 -2.5 "/></g></g></g><g fill="#ffffff" fill-opacity="1"><g transform="translate(250.365805, 261.016292)"><g><path d="M 5.515625 -0.46875 C 5.515625 -0.1875 5.550781 -0.0234375 5.625 0.015625 C 5.675781 0.0351562 5.742188 0.046875 5.828125 0.046875 L 5.828125 -1.84375 L 5.578125 -1.84375 C 5.234375 -0.738281 4.550781 -0.1875 3.53125 -0.1875 C 2.65625 -0.1875 2.0625 -0.625 1.75 -1.5 C 1.59375 -1.925781 1.515625 -2.429688 1.515625 -3.015625 C 1.515625 -4.265625 1.859375 -5.117188 2.546875 -5.578125 C 2.847656 -5.765625 3.1875 -5.859375 3.5625 -5.859375 C 4.394531 -5.859375 5 -5.460938 5.375 -4.671875 C 5.445312 -4.523438 5.503906 -4.378906 5.546875 -4.234375 L 5.796875 -4.234375 L 5.765625 -6.078125 C 5.617188 -6.078125 5.523438 -6.03125 5.484375 -5.9375 C 5.460938 -5.863281 5.453125 -5.734375 5.453125 -5.546875 C 5.265625 -5.742188 4.9375 -5.898438 4.46875 -6.015625 C 4.15625 -6.097656 3.835938 -6.140625 3.515625 -6.140625 C 2.460938 -6.140625 1.65625 -5.742188 1.09375 -4.953125 C 0.695312 -4.398438 0.5 -3.757812 0.5 -3.03125 C 0.5 -2.15625 0.769531 -1.421875 1.3125 -0.828125 C 1.894531 -0.210938 2.644531 0.09375 3.5625 0.09375 C 4.238281 0.09375 4.890625 -0.09375 5.515625 -0.46875 Z M 5.515625 -0.46875 "/></g></g></g><g fill="#ffffff" fill-opacity="1"><g transform="translate(257.703091, 261.016292)"><g><path d="M 6.15625 0 C 6.15625 -0.144531 6.101562 -0.226562 6 -0.25 C 5.96875 -0.257812 5.9375 -0.265625 5.90625 -0.265625 L 5.5625 -0.265625 L 3.265625 -6.03125 L 2.890625 -6.03125 L 0.640625 -0.265625 L 0 -0.265625 L 0 0 L 1.796875 0 C 1.796875 -0.144531 1.738281 -0.226562 1.625 -0.25 C 1.59375 -0.257812 1.5625 -0.265625 1.53125 -0.265625 L 1.03125 -0.265625 L 1.796875 -2.21875 L 3.890625 -2.21875 L 4.640625 -0.265625 L 3.984375 -0.265625 L 3.984375 0 Z M 3.78125 -2.5 L 1.90625 -2.5 L 2.828125 -4.9375 Z M 3.78125 -2.5 "/></g></g></g><g fill="#ffffff" fill-opacity="1"><g transform="translate(264.929733, 261.016292)"><g><path d="M 0.40625 -6.03125 L 0.40625 -5.765625 L 1.203125 -5.765625 L 1.203125 -0.265625 L 0.40625 -0.265625 L 0.40625 0 L 3.171875 0 C 4.078125 0 4.820312 -0.28125 5.40625 -0.84375 C 5.988281 -1.394531 6.28125 -2.117188 6.28125 -3.015625 C 6.28125 -4.171875 5.851562 -5.015625 5 -5.546875 C 4.488281 -5.867188 3.890625 -6.03125 3.203125 -6.03125 Z M 3.171875 -5.765625 C 4.234375 -5.765625 4.894531 -5.285156 5.15625 -4.328125 C 5.257812 -3.972656 5.3125 -3.550781 5.3125 -3.0625 C 5.3125 -1.382812 4.738281 -0.460938 3.59375 -0.296875 C 3.46875 -0.273438 3.335938 -0.265625 3.203125 -0.265625 L 2.078125 -0.265625 L 2.078125 -5.765625 Z M 3.171875 -5.765625 "/></g></g></g><g fill="#ffffff" fill-opacity="1"><g transform="translate(272.82021, 261.016292)"><g><path d="M 3.5625 -6.140625 C 2.757812 -6.140625 2.070312 -5.875 1.5 -5.34375 C 0.863281 -4.757812 0.546875 -4 0.546875 -3.0625 C 0.546875 -1.96875 0.921875 -1.128906 1.671875 -0.546875 C 2.210938 -0.117188 2.835938 0.09375 3.546875 0.09375 C 4.328125 0.09375 5.003906 -0.171875 5.578125 -0.703125 C 6.210938 -1.296875 6.53125 -2.066406 6.53125 -3.015625 C 6.53125 -4.117188 6.144531 -4.960938 5.375 -5.546875 C 4.851562 -5.941406 4.25 -6.140625 3.5625 -6.140625 Z M 3.5625 -0.1875 C 2.59375 -0.1875 1.972656 -0.703125 1.703125 -1.734375 C 1.609375 -2.109375 1.5625 -2.535156 1.5625 -3.015625 C 1.5625 -4.609375 2.039062 -5.535156 3 -5.796875 C 3.175781 -5.835938 3.359375 -5.859375 3.546875 -5.859375 C 4.859375 -5.835938 5.519531 -4.90625 5.53125 -3.0625 C 5.53125 -1.59375 5.125 -0.679688 4.3125 -0.328125 C 4.082031 -0.234375 3.832031 -0.1875 3.5625 -0.1875 Z M 3.5625 -0.1875 "/></g></g></g><g fill="#ffffff" fill-opacity="1"><g transform="translate(70.048026, 238.560714)"><g><path d="M 9.734375 5.703125 C 7.304688 5.703125 5.359375 5.078125 3.890625 3.828125 C 2.429688 2.585938 1.703125 0.890625 1.703125 -1.265625 C 1.703125 -2.734375 2.023438 -4.066406 2.671875 -5.265625 C 3.492188 -6.867188 4.601562 -8.332031 6 -9.65625 C 7.40625 -10.988281 8.929688 -12.066406 10.578125 -12.890625 C 12.234375 -13.710938 13.835938 -14.125 15.390625 -14.125 C 17.378906 -14.125 18.9375 -13.65625 20.0625 -12.71875 C 21.1875 -11.78125 21.75 -10.550781 21.75 -9.03125 C 21.75 -8.207031 21.578125 -7.414062 21.234375 -6.65625 C 20.898438 -5.90625 20.488281 -5.265625 20 -4.734375 C 19.257812 -3.910156 18.671875 -3.5 18.234375 -3.5 C 18.117188 -3.5 18.0625 -3.5625 18.0625 -3.6875 C 18.0625 -3.769531 18.101562 -3.898438 18.1875 -4.078125 C 19.25 -5.628906 19.78125 -7.117188 19.78125 -8.546875 C 19.78125 -9.835938 19.367188 -10.90625 18.546875 -11.75 C 17.722656 -12.59375 16.625 -13.015625 15.25 -13.015625 C 13.9375 -13.015625 12.625 -12.628906 11.3125 -11.859375 C 10 -11.085938 8.789062 -10.078125 7.6875 -8.828125 C 6.59375 -7.585938 5.695312 -6.253906 5 -4.828125 C 4.269531 -3.390625 3.90625 -2 3.90625 -0.65625 C 3.90625 1.125 4.476562 2.472656 5.625 3.390625 C 6.78125 4.316406 8.296875 4.78125 10.171875 4.78125 C 17.628906 4.78125 25.40625 -1.738281 33.5 -14.78125 C 38.351562 -22.550781 40.835938 -27.3125 40.953125 -29.0625 L 38.359375 -29.203125 C 37.660156 -29.234375 36.828125 -29.148438 35.859375 -28.953125 C 34.898438 -28.765625 33.9375 -28.488281 32.96875 -28.125 C 32.007812 -27.757812 31.140625 -27.332031 30.359375 -26.84375 C 29.585938 -26.363281 29.039062 -25.832031 28.71875 -25.25 C 28.457031 -24.8125 28.328125 -24.390625 28.328125 -23.984375 C 28.328125 -23.335938 28.601562 -22.691406 29.15625 -22.046875 C 29.707031 -21.410156 29.984375 -21.03125 29.984375 -20.90625 C 29.984375 -20.757812 29.8125 -20.660156 29.46875 -20.609375 C 29.375 -20.578125 29.253906 -20.5625 29.109375 -20.5625 C 28.492188 -20.5625 27.910156 -20.835938 27.359375 -21.390625 C 26.710938 -22.035156 26.390625 -22.8125 26.390625 -23.71875 C 26.390625 -24.539062 26.65625 -25.300781 27.1875 -26 C 27.914062 -26.988281 28.929688 -27.773438 30.234375 -28.359375 C 31.535156 -28.953125 32.9375 -29.367188 34.4375 -29.609375 C 35.945312 -29.859375 37.375 -29.96875 38.71875 -29.9375 C 38.976562 -29.9375 39.691406 -29.894531 40.859375 -29.8125 C 40.804688 -30.195312 40.960938 -30.554688 41.328125 -30.890625 C 41.691406 -31.222656 42.109375 -31.390625 42.578125 -31.390625 C 43.453125 -31.390625 43.875 -30.757812 43.84375 -29.5 C 47 -28.945312 48.664062 -28.101562 48.84375 -26.96875 C 48.875 -26.84375 48.890625 -26.722656 48.890625 -26.609375 C 48.890625 -26.492188 48.890625 -26.394531 48.890625 -26.3125 C 48.890625 -25.71875 48.726562 -25.421875 48.40625 -25.421875 C 48.144531 -25.421875 48.015625 -25.613281 48.015625 -26 C 48.015625 -26.0625 48.015625 -26.132812 48.015625 -26.21875 C 48.015625 -26.300781 48.023438 -26.390625 48.046875 -26.484375 C 47.316406 -27.566406 45.875 -28.328125 43.71875 -28.765625 C 43.1875 -26.390625 40.4375 -21.242188 35.46875 -13.328125 C 33.945312 -10.898438 32.191406 -8.550781 30.203125 -6.28125 C 28.222656 -4.019531 26.101562 -1.984375 23.84375 -0.171875 C 21.59375 1.640625 19.269531 3.070312 16.875 4.125 C 14.476562 5.175781 12.097656 5.703125 9.734375 5.703125 Z M 9.734375 5.703125 "/></g></g></g><g fill="#ffffff" fill-opacity="1"><g transform="translate(106.062009, 238.560714)"><g><path d="M 1.890625 0.09375 C 1.160156 0.09375 0.585938 -0.25 0.171875 -0.9375 C -0.234375 -1.625 -0.4375 -2.289062 -0.4375 -2.9375 C -0.4375 -4.6875 0.832031 -7.140625 3.375 -10.296875 C 5.945312 -13.484375 8.023438 -15.078125 9.609375 -15.078125 C 11.097656 -15.078125 11.84375 -14.289062 11.84375 -12.71875 C 11.84375 -12.476562 11.816406 -12.226562 11.765625 -11.96875 C 11.722656 -11.707031 11.675781 -11.429688 11.625 -11.140625 C 11.675781 -11.046875 11.820312 -11 12.0625 -11 C 12.84375 -11 13.773438 -11.28125 14.859375 -11.84375 C 14.828125 -11.34375 13.675781 -10.625 11.40625 -9.6875 C 11.71875 -8.726562 10.75 -6.890625 8.5 -4.171875 C 6.195312 -1.328125 4.226562 0.09375 2.59375 0.09375 Z M 2.671875 -1.234375 C 3.929688 -1.234375 5.539062 -2.382812 7.5 -4.6875 C 9.394531 -6.9375 10.34375 -8.5625 10.34375 -9.5625 C 9.875 -9.820312 9.289062 -10.492188 8.59375 -11.578125 C 7.601562 -11.578125 6.171875 -10.378906 4.296875 -7.984375 C 2.453125 -5.640625 1.5625 -3.84375 1.625 -2.59375 C 1.65625 -1.6875 2.003906 -1.234375 2.671875 -1.234375 Z M 2.671875 -1.234375 "/></g></g></g><g fill="#ffffff" fill-opacity="1"><g transform="translate(118.373353, 238.560714)"><g><path d="M 9.6875 -15.078125 C 9.1875 -15.078125 8.753906 -15.238281 8.390625 -15.5625 C 8.023438 -15.882812 7.84375 -16.25 7.84375 -16.65625 C 7.84375 -17.476562 8.398438 -17.890625 9.515625 -17.890625 C 9.921875 -17.890625 10.328125 -17.75 10.734375 -17.46875 C 11.148438 -17.195312 11.359375 -16.851562 11.359375 -16.4375 C 11.359375 -16.09375 11.164062 -15.78125 10.78125 -15.5 C 10.40625 -15.21875 10.039062 -15.078125 9.6875 -15.078125 Z M 1.578125 0.484375 C 0.929688 0.484375 0.398438 0.269531 -0.015625 -0.15625 C -0.441406 -0.582031 -0.65625 -1.332031 -0.65625 -2.40625 C -0.65625 -3.019531 -0.515625 -3.726562 -0.234375 -4.53125 C 0.0351562 -5.34375 0.382812 -6.15625 0.8125 -6.96875 C 1.238281 -7.789062 1.65625 -8.519531 2.0625 -9.15625 C 3.695312 -11.820312 5.039062 -13.171875 6.09375 -13.203125 C 6.351562 -13.203125 6.671875 -13.09375 7.046875 -12.875 C 7.429688 -12.65625 7.625 -12.410156 7.625 -12.140625 C 7.625 -12.140625 6.515625 -10.707031 4.296875 -7.84375 C 2.109375 -5.007812 1.015625 -2.992188 1.015625 -1.796875 C 1.015625 -0.859375 1.378906 -0.390625 2.109375 -0.390625 C 2.578125 -0.390625 3.179688 -0.585938 3.921875 -0.984375 C 4.671875 -1.378906 5.453125 -1.882812 6.265625 -2.5 C 7.085938 -3.113281 7.867188 -3.769531 8.609375 -4.46875 C 9.359375 -5.175781 9.96875 -5.820312 10.4375 -6.40625 C 10.726562 -6.78125 10.984375 -7.039062 11.203125 -7.1875 C 11.421875 -7.332031 11.5625 -7.40625 11.625 -7.40625 C 11.738281 -7.40625 11.796875 -7.316406 11.796875 -7.140625 C 11.796875 -6.992188 11.625 -6.703125 11.28125 -6.265625 C 10.945312 -5.828125 10.488281 -5.316406 9.90625 -4.734375 C 9.207031 -4.035156 8.429688 -3.273438 7.578125 -2.453125 C 6.734375 -1.640625 5.8125 -0.945312 4.8125 -0.375 C 3.820312 0.195312 2.742188 0.484375 1.578125 0.484375 Z M 1.578125 0.484375 "/></g></g></g><g fill="#ffffff" fill-opacity="1"><g transform="translate(128.274999, 238.560714)"><g><path d="M 3.328125 0.5625 C 2.390625 0.5625 1.539062 0.265625 0.78125 -0.328125 C 0.03125 -0.929688 -0.34375 -1.726562 -0.34375 -2.71875 C -0.34375 -4.789062 0.925781 -7.160156 3.46875 -9.828125 C 6.0625 -12.515625 8.382812 -13.859375 10.4375 -13.859375 C 11.132812 -13.859375 11.6875 -13.675781 12.09375 -13.3125 C 12.507812 -12.945312 12.71875 -12.5 12.71875 -11.96875 C 12.71875 -11.238281 12.539062 -10.566406 12.1875 -9.953125 C 11.78125 -9.191406 11.195312 -8.8125 10.4375 -8.8125 C 9.675781 -8.8125 9.296875 -9.046875 9.296875 -9.515625 C 9.296875 -9.835938 9.484375 -10.316406 9.859375 -10.953125 C 10.273438 -11.628906 10.484375 -11.984375 10.484375 -12.015625 C 10.484375 -12.066406 10.4375 -12.09375 10.34375 -12.09375 C 9.53125 -12.007812 8.390625 -11.410156 6.921875 -10.296875 C 6.285156 -9.804688 5.722656 -9.34375 5.234375 -8.90625 C 4.753906 -8.46875 4.367188 -8.039062 4.078125 -7.625 L 2.375 -5.125 C 2.195312 -4.863281 2.007812 -4.410156 1.8125 -3.765625 C 1.625 -3.128906 1.53125 -2.648438 1.53125 -2.328125 C 1.53125 -1.742188 1.726562 -1.257812 2.125 -0.875 C 2.519531 -0.5 3.023438 -0.3125 3.640625 -0.3125 C 5.097656 -0.3125 7.023438 -1.257812 9.421875 -3.15625 C 11.347656 -4.675781 12.898438 -6.210938 14.078125 -7.765625 C 14.222656 -7.929688 14.394531 -8.015625 14.59375 -8.015625 C 14.800781 -8.015625 14.90625 -7.957031 14.90625 -7.84375 C 14.90625 -7.757812 14.832031 -7.613281 14.6875 -7.40625 C 13.082031 -5.269531 11.195312 -3.429688 9.03125 -1.890625 C 6.71875 -0.253906 4.816406 0.5625 3.328125 0.5625 Z M 3.328125 0.5625 "/></g></g></g><g fill="#ffffff" fill-opacity="1"><g transform="translate(140.673961, 238.560714)"><g><path d="M 2.234375 0.5625 C 1.296875 0.5625 0.445312 0.265625 -0.3125 -0.328125 C -1.070312 -0.929688 -1.453125 -1.726562 -1.453125 -2.71875 C -1.453125 -4.789062 -0.175781 -7.160156 2.375 -9.828125 C 4.96875 -12.515625 7.289062 -13.859375 9.34375 -13.859375 C 10.007812 -13.859375 10.554688 -13.675781 10.984375 -13.3125 C 11.410156 -12.945312 11.625 -12.5 11.625 -11.96875 C 11.625 -10.332031 10.320312 -8.722656 7.71875 -7.140625 C 5.40625 -5.742188 3.460938 -5.046875 1.890625 -5.046875 C 1.648438 -5.046875 1.441406 -5.070312 1.265625 -5.125 C 0.828125 -4.34375 0.609375 -3.507812 0.609375 -2.625 C 0.609375 -1.101562 1.328125 -0.34375 2.765625 -0.34375 C 4.222656 -0.34375 6.109375 -1.320312 8.421875 -3.28125 C 10.203125 -4.71875 11.722656 -6.238281 12.984375 -7.84375 C 13.242188 -8.195312 13.472656 -8.375 13.671875 -8.375 C 13.847656 -8.375 13.9375 -8.285156 13.9375 -8.109375 C 13.9375 -7.929688 13.820312 -7.679688 13.59375 -7.359375 C 12.769531 -6.285156 11.890625 -5.296875 10.953125 -4.390625 C 10.023438 -3.484375 9.019531 -2.648438 7.9375 -1.890625 C 5.6875 -0.253906 3.785156 0.5625 2.234375 0.5625 Z M 2.5 -6 C 3.613281 -6 5.0625 -6.554688 6.84375 -7.671875 C 7.425781 -8.078125 8 -8.535156 8.5625 -9.046875 C 9.132812 -9.566406 9.601562 -10.085938 9.96875 -10.609375 C 10.332031 -11.140625 10.515625 -11.609375 10.515625 -12.015625 C 10.515625 -12.390625 10.210938 -12.578125 9.609375 -12.578125 C 8.722656 -12.578125 7.492188 -11.921875 5.921875 -10.609375 C 5.160156 -9.960938 4.425781 -9.257812 3.71875 -8.5 C 3.019531 -7.738281 2.421875 -6.9375 1.921875 -6.09375 C 2.097656 -6.03125 2.289062 -6 2.5 -6 Z M 2.5 -6 "/></g></g></g><g fill="#ffffff" fill-opacity="1"><g transform="translate(151.933802, 238.560714)"><g/></g></g><g fill="#ffffff" fill-opacity="1"><g transform="translate(160.608709, 238.560714)"><g><path d="M 11.53125 2.84375 C 8.289062 2.84375 5.785156 1.976562 4.015625 0.25 C 2.242188 -1.46875 1.359375 -3.695312 1.359375 -6.4375 C 1.359375 -8.957031 1.976562 -11.414062 3.21875 -13.8125 C 4.457031 -16.207031 6.03125 -18.414062 7.9375 -20.4375 C 9.488281 -22.070312 11.265625 -23.488281 13.265625 -24.6875 C 15.265625 -25.882812 17.367188 -26.816406 19.578125 -27.484375 C 21.785156 -28.160156 23.941406 -28.5 26.046875 -28.5 C 27.710938 -28.5 29.21875 -28.269531 30.5625 -27.8125 C 31.90625 -27.363281 32.96875 -26.65625 33.75 -25.6875 C 34.539062 -24.726562 34.9375 -23.472656 34.9375 -21.921875 C 34.9375 -20.546875 34.609375 -19.265625 33.953125 -18.078125 C 33.296875 -16.898438 32.421875 -15.867188 31.328125 -14.984375 C 30.234375 -14.109375 29.023438 -13.421875 27.703125 -12.921875 C 26.390625 -12.429688 25.0625 -12.1875 23.71875 -12.1875 C 21.96875 -12.1875 20.492188 -12.585938 19.296875 -13.390625 C 18.097656 -14.191406 17.5 -15.207031 17.5 -16.4375 C 17.5 -18.019531 18.503906 -19.570312 20.515625 -21.09375 C 20.867188 -21.351562 21.148438 -21.484375 21.359375 -21.484375 C 21.503906 -21.484375 21.578125 -21.425781 21.578125 -21.3125 C 21.578125 -21.019531 21.34375 -20.785156 20.875 -20.609375 C 19.238281 -19.296875 18.421875 -17.960938 18.421875 -16.609375 C 18.421875 -15.648438 18.859375 -14.84375 19.734375 -14.1875 C 20.609375 -13.53125 21.703125 -13.203125 23.015625 -13.203125 C 24.179688 -13.203125 25.359375 -13.445312 26.546875 -13.9375 C 27.734375 -14.4375 28.820312 -15.109375 29.8125 -15.953125 C 30.800781 -16.804688 31.597656 -17.765625 32.203125 -18.828125 C 32.804688 -19.898438 33.109375 -21.019531 33.109375 -22.1875 C 33.109375 -24.082031 32.460938 -25.46875 31.171875 -26.34375 C 29.890625 -27.226562 28.253906 -27.671875 26.265625 -27.671875 C 24.015625 -27.671875 21.785156 -27.242188 19.578125 -26.390625 C 17.367188 -25.546875 15.300781 -24.378906 13.375 -22.890625 C 11.445312 -21.398438 9.722656 -19.6875 8.203125 -17.75 C 5.160156 -13.925781 3.640625 -10.332031 3.640625 -6.96875 C 3.640625 -5.1875 4.046875 -3.671875 4.859375 -2.421875 C 5.679688 -1.179688 6.816406 -0.242188 8.265625 0.390625 C 9.710938 1.035156 11.367188 1.359375 13.234375 1.359375 C 16.015625 1.359375 18.703125 0.753906 21.296875 -0.453125 C 23.898438 -1.671875 26.125 -3.300781 27.96875 -5.34375 C 28.46875 -5.875 28.832031 -6.140625 29.0625 -6.140625 C 29.238281 -6.140625 29.328125 -6.007812 29.328125 -5.75 C 29.328125 -5.394531 29.164062 -5.054688 28.84375 -4.734375 C 27.851562 -3.679688 26.671875 -2.703125 25.296875 -1.796875 C 23.921875 -0.890625 22.453125 -0.0859375 20.890625 0.609375 C 19.328125 1.316406 17.738281 1.863281 16.125 2.25 C 14.519531 2.644531 12.988281 2.84375 11.53125 2.84375 Z M 11.53125 2.84375 "/></g></g></g><g fill="#ffffff" fill-opacity="1"><g transform="translate(192.416681, 238.560714)"><g><path d="M 2.9375 0.21875 C 2.238281 0.21875 1.535156 -0.0234375 0.828125 -0.515625 C 0.128906 -1.015625 -0.257812 -1.601562 -0.34375 -2.28125 C -0.644531 -4.53125 0.769531 -7.203125 3.90625 -10.296875 C 7 -13.398438 9.789062 -14.953125 12.28125 -14.953125 C 12.945312 -14.953125 13.472656 -14.789062 13.859375 -14.46875 C 14.054688 -14.257812 14.207031 -13.976562 14.3125 -13.625 C 14.414062 -13.28125 14.5 -13.109375 14.5625 -13.109375 C 14.675781 -13.109375 14.773438 -13.128906 14.859375 -13.171875 C 14.953125 -13.210938 15.054688 -13.234375 15.171875 -13.234375 C 15.523438 -13.234375 15.832031 -13.101562 16.09375 -12.84375 C 16.351562 -12.582031 16.5 -12.347656 16.53125 -12.140625 C 16.5625 -12.085938 15.625 -10.640625 13.71875 -7.796875 C 11.820312 -5.023438 10.960938 -3.140625 11.140625 -2.140625 C 11.285156 -1.472656 11.601562 -1.140625 12.09375 -1.140625 C 13.613281 -1.140625 16.394531 -3.65625 20.4375 -8.6875 C 20.519531 -8.800781 20.601562 -8.859375 20.6875 -8.859375 C 20.832031 -8.859375 20.90625 -8.753906 20.90625 -8.546875 C 20.90625 -8.316406 20.773438 -8.023438 20.515625 -7.671875 C 16.804688 -2.671875 13.957031 -0.171875 11.96875 -0.171875 C 11.707031 -0.171875 11.457031 -0.21875 11.21875 -0.3125 C 9.9375 -0.800781 9.296875 -1.765625 9.296875 -3.203125 C 9.296875 -3.703125 9.351562 -4.195312 9.46875 -4.6875 L 6.75 -2.0625 C 5.9375 -1.238281 5.195312 -0.648438 4.53125 -0.296875 C 3.875 0.046875 3.34375 0.21875 2.9375 0.21875 Z M 2.546875 -0.75 C 4.234375 -0.75 6.539062 -2.601562 9.46875 -6.3125 L 14.125 -12.71875 C 13.882812 -13.125 13.503906 -13.328125 12.984375 -13.328125 C 11.191406 -13.328125 8.78125 -11.894531 5.75 -9.03125 C 2.59375 -6.101562 1.171875 -3.691406 1.484375 -1.796875 C 1.628906 -1.097656 1.984375 -0.75 2.546875 -0.75 Z M 2.546875 -0.75 "/></g></g></g><g fill="#ffffff" fill-opacity="1"><g transform="translate(210.467496, 238.560714)"><g><path d="M 5.046875 0.09375 C 3.671875 0.09375 2.65625 -0.359375 2 -1.265625 C 1.34375 -2.171875 0.804688 -3.429688 0.390625 -5.046875 C -0.128906 -4.515625 -0.492188 -4.25 -0.703125 -4.25 C -0.847656 -4.25 -0.921875 -4.367188 -0.921875 -4.609375 C -0.921875 -4.773438 -0.847656 -4.929688 -0.703125 -5.078125 C -0.703125 -5.078125 -0.332031 -5.53125 0.40625 -6.4375 C 1.15625 -7.34375 2.421875 -8.617188 4.203125 -10.265625 L 9.734375 -15.4375 C 10.492188 -16.164062 11.097656 -16.71875 11.546875 -17.09375 C 12.003906 -17.476562 12.335938 -17.671875 12.546875 -17.671875 C 13.472656 -17.671875 13.9375 -17.316406 13.9375 -16.609375 C 13.9375 -16.265625 13.75 -15.859375 13.375 -15.390625 C 13.082031 -15.035156 12.867188 -14.765625 12.734375 -14.578125 C 12.609375 -14.390625 12.53125 -14.28125 12.5 -14.25 C 11.96875 -13.34375 11.484375 -11.71875 11.046875 -9.375 C 10.722656 -7.65625 10.441406 -6.238281 10.203125 -5.125 C 9.972656 -4.019531 9.785156 -3.21875 9.640625 -2.71875 C 10.867188 -2.75 12.082031 -3.128906 13.28125 -3.859375 C 14.476562 -4.585938 15.765625 -5.785156 17.140625 -7.453125 C 17.203125 -7.515625 17.289062 -7.601562 17.40625 -7.71875 C 17.519531 -7.832031 17.632812 -7.890625 17.75 -7.890625 C 17.925781 -7.890625 18.015625 -7.816406 18.015625 -7.671875 C 18.015625 -7.523438 17.96875 -7.378906 17.875 -7.234375 C 17.789062 -7.085938 17.707031 -6.957031 17.625 -6.84375 C 16.71875 -5.757812 15.867188 -4.875 15.078125 -4.1875 C 14.296875 -3.5 13.460938 -2.957031 12.578125 -2.5625 C 11.703125 -2.164062 10.664062 -1.835938 9.46875 -1.578125 L 8.0625 -0.65625 C 7.6875 -0.394531 7.234375 -0.203125 6.703125 -0.078125 C 6.179688 0.0351562 5.628906 0.09375 5.046875 0.09375 Z M 5.5625 -2.140625 C 6.238281 -2.140625 6.796875 -2.300781 7.234375 -2.625 C 7.554688 -2.800781 7.867188 -3.289062 8.171875 -4.09375 C 8.484375 -4.90625 8.785156 -5.910156 9.078125 -7.109375 C 9.304688 -8.128906 9.488281 -9.128906 9.625 -10.109375 C 9.757812 -11.085938 9.882812 -12.03125 10 -12.9375 L 10.171875 -14.421875 C 9.492188 -13.921875 8.644531 -13.203125 7.625 -12.265625 C 6.601562 -11.335938 5.597656 -10.363281 4.609375 -9.34375 C 3.609375 -8.3125 2.960938 -7.554688 2.671875 -7.078125 C 2.378906 -6.597656 2.21875 -6.238281 2.1875 -6 C 2.070312 -4.832031 2.359375 -3.894531 3.046875 -3.1875 C 3.734375 -2.488281 4.570312 -2.140625 5.5625 -2.140625 Z M 5.5625 -2.140625 "/></g></g></g><g fill="#ffffff" fill-opacity="1"><g transform="translate(226.196232, 238.560714)"><g><path d="M 5.046875 0.09375 C 3.671875 0.09375 2.65625 -0.359375 2 -1.265625 C 1.34375 -2.171875 0.804688 -3.429688 0.390625 -5.046875 C -0.128906 -4.515625 -0.492188 -4.25 -0.703125 -4.25 C -0.847656 -4.25 -0.921875 -4.367188 -0.921875 -4.609375 C -0.921875 -4.773438 -0.847656 -4.929688 -0.703125 -5.078125 C -0.703125 -5.078125 -0.332031 -5.53125 0.40625 -6.4375 C 1.15625 -7.34375 2.421875 -8.617188 4.203125 -10.265625 L 9.734375 -15.4375 C 10.492188 -16.164062 11.097656 -16.71875 11.546875 -17.09375 C 12.003906 -17.476562 12.335938 -17.671875 12.546875 -17.671875 C 13.472656 -17.671875 13.9375 -17.316406 13.9375 -16.609375 C 13.9375 -16.265625 13.75 -15.859375 13.375 -15.390625 C 13.082031 -15.035156 12.867188 -14.765625 12.734375 -14.578125 C 12.609375 -14.390625 12.53125 -14.28125 12.5 -14.25 C 11.96875 -13.34375 11.484375 -11.71875 11.046875 -9.375 C 10.722656 -7.65625 10.441406 -6.238281 10.203125 -5.125 C 9.972656 -4.019531 9.785156 -3.21875 9.640625 -2.71875 C 10.867188 -2.75 12.082031 -3.128906 13.28125 -3.859375 C 14.476562 -4.585938 15.765625 -5.785156 17.140625 -7.453125 C 17.203125 -7.515625 17.289062 -7.601562 17.40625 -7.71875 C 17.519531 -7.832031 17.632812 -7.890625 17.75 -7.890625 C 17.925781 -7.890625 18.015625 -7.816406 18.015625 -7.671875 C 18.015625 -7.523438 17.96875 -7.378906 17.875 -7.234375 C 17.789062 -7.085938 17.707031 -6.957031 17.625 -6.84375 C 16.71875 -5.757812 15.867188 -4.875 15.078125 -4.1875 C 14.296875 -3.5 13.460938 -2.957031 12.578125 -2.5625 C 11.703125 -2.164062 10.664062 -1.835938 9.46875 -1.578125 L 8.0625 -0.65625 C 7.6875 -0.394531 7.234375 -0.203125 6.703125 -0.078125 C 6.179688 0.0351562 5.628906 0.09375 5.046875 0.09375 Z M 5.5625 -2.140625 C 6.238281 -2.140625 6.796875 -2.300781 7.234375 -2.625 C 7.554688 -2.800781 7.867188 -3.289062 8.171875 -4.09375 C 8.484375 -4.90625 8.785156 -5.910156 9.078125 -7.109375 C 9.304688 -8.128906 9.488281 -9.128906 9.625 -10.109375 C 9.757812 -11.085938 9.882812 -12.03125 10 -12.9375 L 10.171875 -14.421875 C 9.492188 -13.921875 8.644531 -13.203125 7.625 -12.265625 C 6.601562 -11.335938 5.597656 -10.363281 4.609375 -9.34375 C 3.609375 -8.3125 2.960938 -7.554688 2.671875 -7.078125 C 2.378906 -6.597656 2.21875 -6.238281 2.1875 -6 C 2.070312 -4.832031 2.359375 -3.894531 3.046875 -3.1875 C 3.734375 -2.488281 4.570312 -2.140625 5.5625 -2.140625 Z M 5.5625 -2.140625 "/></g></g></g><g fill="#ffffff" fill-opacity="1"><g transform="translate(241.924968, 238.560714)"><g><path d="M 9.6875 -15.078125 C 9.1875 -15.078125 8.753906 -15.238281 8.390625 -15.5625 C 8.023438 -15.882812 7.84375 -16.25 7.84375 -16.65625 C 7.84375 -17.476562 8.398438 -17.890625 9.515625 -17.890625 C 9.921875 -17.890625 10.328125 -17.75 10.734375 -17.46875 C 11.148438 -17.195312 11.359375 -16.851562 11.359375 -16.4375 C 11.359375 -16.09375 11.164062 -15.78125 10.78125 -15.5 C 10.40625 -15.21875 10.039062 -15.078125 9.6875 -15.078125 Z M 1.578125 0.484375 C 0.929688 0.484375 0.398438 0.269531 -0.015625 -0.15625 C -0.441406 -0.582031 -0.65625 -1.332031 -0.65625 -2.40625 C -0.65625 -3.019531 -0.515625 -3.726562 -0.234375 -4.53125 C 0.0351562 -5.34375 0.382812 -6.15625 0.8125 -6.96875 C 1.238281 -7.789062 1.65625 -8.519531 2.0625 -9.15625 C 3.695312 -11.820312 5.039062 -13.171875 6.09375 -13.203125 C 6.351562 -13.203125 6.671875 -13.09375 7.046875 -12.875 C 7.429688 -12.65625 7.625 -12.410156 7.625 -12.140625 C 7.625 -12.140625 6.515625 -10.707031 4.296875 -7.84375 C 2.109375 -5.007812 1.015625 -2.992188 1.015625 -1.796875 C 1.015625 -0.859375 1.378906 -0.390625 2.109375 -0.390625 C 2.578125 -0.390625 3.179688 -0.585938 3.921875 -0.984375 C 4.671875 -1.378906 5.453125 -1.882812 6.265625 -2.5 C 7.085938 -3.113281 7.867188 -3.769531 8.609375 -4.46875 C 9.359375 -5.175781 9.96875 -5.820312 10.4375 -6.40625 C 10.726562 -6.78125 10.984375 -7.039062 11.203125 -7.1875 C 11.421875 -7.332031 11.5625 -7.40625 11.625 -7.40625 C 11.738281 -7.40625 11.796875 -7.316406 11.796875 -7.140625 C 11.796875 -6.992188 11.625 -6.703125 11.28125 -6.265625 C 10.945312 -5.828125 10.488281 -5.316406 9.90625 -4.734375 C 9.207031 -4.035156 8.429688 -3.273438 7.578125 -2.453125 C 6.734375 -1.640625 5.8125 -0.945312 4.8125 -0.375 C 3.820312 0.195312 2.742188 0.484375 1.578125 0.484375 Z M 1.578125 0.484375 "/></g></g></g><g fill="#ffffff" fill-opacity="1"><g transform="translate(251.826614, 238.560714)"><g><path d="M 2.9375 0.21875 C 2.238281 0.21875 1.535156 -0.0234375 0.828125 -0.515625 C 0.128906 -1.015625 -0.257812 -1.601562 -0.34375 -2.28125 C -0.644531 -4.53125 0.769531 -7.203125 3.90625 -10.296875 C 7 -13.398438 9.789062 -14.953125 12.28125 -14.953125 C 12.945312 -14.953125 13.472656 -14.789062 13.859375 -14.46875 C 14.054688 -14.257812 14.207031 -13.976562 14.3125 -13.625 C 14.414062 -13.28125 14.5 -13.109375 14.5625 -13.109375 C 14.675781 -13.109375 14.773438 -13.128906 14.859375 -13.171875 C 14.953125 -13.210938 15.054688 -13.234375 15.171875 -13.234375 C 15.523438 -13.234375 15.832031 -13.101562 16.09375 -12.84375 C 16.351562 -12.582031 16.5 -12.347656 16.53125 -12.140625 C 16.5625 -12.085938 15.625 -10.640625 13.71875 -7.796875 C 11.820312 -5.023438 10.960938 -3.140625 11.140625 -2.140625 C 11.285156 -1.472656 11.601562 -1.140625 12.09375 -1.140625 C 13.613281 -1.140625 16.394531 -3.65625 20.4375 -8.6875 C 20.519531 -8.800781 20.601562 -8.859375 20.6875 -8.859375 C 20.832031 -8.859375 20.90625 -8.753906 20.90625 -8.546875 C 20.90625 -8.316406 20.773438 -8.023438 20.515625 -7.671875 C 16.804688 -2.671875 13.957031 -0.171875 11.96875 -0.171875 C 11.707031 -0.171875 11.457031 -0.21875 11.21875 -0.3125 C 9.9375 -0.800781 9.296875 -1.765625 9.296875 -3.203125 C 9.296875 -3.703125 9.351562 -4.195312 9.46875 -4.6875 L 6.75 -2.0625 C 5.9375 -1.238281 5.195312 -0.648438 4.53125 -0.296875 C 3.875 0.046875 3.34375 0.21875 2.9375 0.21875 Z M 2.546875 -0.75 C 4.234375 -0.75 6.539062 -2.601562 9.46875 -6.3125 L 14.125 -12.71875 C 13.882812 -13.125 13.503906 -13.328125 12.984375 -13.328125 C 11.191406 -13.328125 8.78125 -11.894531 5.75 -9.03125 C 2.59375 -6.101562 1.171875 -3.691406 1.484375 -1.796875 C 1.628906 -1.097656 1.984375 -0.75 2.546875 -0.75 Z M 2.546875 -0.75 "/></g></g></g><g fill="#ffffff" fill-opacity="1"><g transform="translate(269.877429, 238.560714)"><g><path d="M 11.1875 0.09375 C 10.394531 0.09375 9.835938 -0.128906 9.515625 -0.578125 C 9.191406 -1.035156 9.03125 -1.601562 9.03125 -2.28125 C 9.03125 -3.976562 9.613281 -5.789062 10.78125 -7.71875 L 13.59375 -12.28125 C 11.601562 -10.8125 9.628906 -8.984375 7.671875 -6.796875 C 7.148438 -6.210938 6.554688 -5.523438 5.890625 -4.734375 C 5.234375 -3.941406 4.515625 -3.035156 3.734375 -2.015625 C 2.671875 -0.640625 2.039062 0.046875 1.84375 0.046875 C 1.4375 0.046875 1.097656 -0.132812 0.828125 -0.5 C 0.566406 -0.863281 0.4375 -1.191406 0.4375 -1.484375 C 0.4375 -1.722656 0.507812 -2.15625 0.65625 -2.78125 C 0.800781 -3.414062 0.976562 -3.960938 1.1875 -4.421875 C 1.382812 -4.921875 1.59375 -5.410156 1.8125 -5.890625 C 2.03125 -6.378906 2.242188 -6.859375 2.453125 -7.328125 L -0.171875 -4.5625 C -0.234375 -4.5 -0.410156 -4.320312 -0.703125 -4.03125 C -0.992188 -3.738281 -1.226562 -3.59375 -1.40625 -3.59375 C -1.550781 -3.59375 -1.625 -3.695312 -1.625 -3.90625 C -1.625 -3.957031 -1.597656 -4.035156 -1.546875 -4.140625 C -1.503906 -4.242188 -1.410156 -4.367188 -1.265625 -4.515625 C -0.828125 -4.953125 -0.375 -5.421875 0.09375 -5.921875 C 0.5625 -6.421875 1.039062 -6.988281 1.53125 -7.625 C 1.789062 -7.945312 2.179688 -8.4375 2.703125 -9.09375 C 3.234375 -9.75 3.8125 -10.457031 4.4375 -11.21875 C 5.070312 -11.976562 5.664062 -12.679688 6.21875 -13.328125 C 6.363281 -13.535156 6.523438 -13.675781 6.703125 -13.75 C 6.878906 -13.820312 7 -13.859375 7.0625 -13.859375 C 7.851562 -13.859375 8.25 -13.550781 8.25 -12.9375 C 8.25 -12.757812 8.203125 -12.582031 8.109375 -12.40625 C 5.484375 -8.78125 3.90625 -6.019531 3.375 -4.125 C 6.769531 -7.507812 9.492188 -10.054688 11.546875 -11.765625 C 13.609375 -13.484375 15.078125 -14.34375 15.953125 -14.34375 C 16.421875 -14.34375 16.78125 -14.269531 17.03125 -14.125 C 17.28125 -13.976562 17.40625 -13.695312 17.40625 -13.28125 C 17.40625 -13.132812 17.390625 -13.019531 17.359375 -12.9375 C 17.273438 -12.726562 16.675781 -11.910156 15.5625 -10.484375 C 14.894531 -9.660156 14.300781 -8.910156 13.78125 -8.234375 C 13.269531 -7.566406 12.859375 -6.984375 12.546875 -6.484375 C 12.015625 -5.671875 11.613281 -4.90625 11.34375 -4.1875 C 11.082031 -3.46875 10.953125 -2.863281 10.953125 -2.375 C 10.953125 -2.164062 10.984375 -1.914062 11.046875 -1.625 C 11.109375 -1.332031 11.285156 -1.1875 11.578125 -1.1875 C 12.242188 -1.1875 13.296875 -1.769531 14.734375 -2.9375 C 15.398438 -3.519531 16.023438 -4.109375 16.609375 -4.703125 C 17.203125 -5.304688 17.757812 -5.898438 18.28125 -6.484375 C 18.394531 -6.609375 18.582031 -6.835938 18.84375 -7.171875 C 19.113281 -7.503906 19.273438 -7.671875 19.328125 -7.671875 C 19.453125 -7.671875 19.515625 -7.554688 19.515625 -7.328125 C 19.515625 -7.203125 19.445312 -7 19.3125 -6.71875 C 19.175781 -6.445312 19.035156 -6.238281 18.890625 -6.09375 C 18.578125 -5.71875 18.101562 -5.191406 17.46875 -4.515625 C 16.84375 -3.835938 16.140625 -3.148438 15.359375 -2.453125 C 14.585938 -1.753906 13.835938 -1.15625 13.109375 -0.65625 C 12.378906 -0.15625 11.738281 0.09375 11.1875 0.09375 Z M 11.1875 0.09375 "/></g></g></g><g fill="#ffffff" fill-opacity="1"><g transform="translate(287.533906, 238.560714)"><g><path d="M 1.890625 0.09375 C 1.160156 0.09375 0.585938 -0.25 0.171875 -0.9375 C -0.234375 -1.625 -0.4375 -2.289062 -0.4375 -2.9375 C -0.4375 -4.6875 0.832031 -7.140625 3.375 -10.296875 C 5.945312 -13.484375 8.023438 -15.078125 9.609375 -15.078125 C 11.097656 -15.078125 11.84375 -14.289062 11.84375 -12.71875 C 11.84375 -12.476562 11.816406 -12.226562 11.765625 -11.96875 C 11.722656 -11.707031 11.675781 -11.429688 11.625 -11.140625 C 11.675781 -11.046875 11.820312 -11 12.0625 -11 C 12.84375 -11 13.773438 -11.28125 14.859375 -11.84375 C 14.828125 -11.34375 13.675781 -10.625 11.40625 -9.6875 C 11.71875 -8.726562 10.75 -6.890625 8.5 -4.171875 C 6.195312 -1.328125 4.226562 0.09375 2.59375 0.09375 Z M 2.671875 -1.234375 C 3.929688 -1.234375 5.539062 -2.382812 7.5 -4.6875 C 9.394531 -6.9375 10.34375 -8.5625 10.34375 -9.5625 C 9.875 -9.820312 9.289062 -10.492188 8.59375 -11.578125 C 7.601562 -11.578125 6.171875 -10.378906 4.296875 -7.984375 C 2.453125 -5.640625 1.5625 -3.84375 1.625 -2.59375 C 1.65625 -1.6875 2.003906 -1.234375 2.671875 -1.234375 Z M 2.671875 -1.234375 "/></g></g></g><path fill="#ffffff" d="M 288.390625 256.148438 C 288.539062 256.148438 288.679688 256.175781 288.816406 256.230469 C 288.957031 256.289062 289.074219 256.367188 289.179688 256.472656 C 289.285156 256.578125 289.367188 256.699219 289.421875 256.835938 C 289.480469 256.972656 289.507812 257.117188 289.507812 257.265625 C 289.507812 257.414062 289.480469 257.554688 289.421875 257.691406 C 289.367188 257.828125 289.285156 257.949219 289.179688 258.054688 C 289.074219 258.160156 288.957031 258.238281 288.816406 258.296875 C 288.679688 258.351562 288.539062 258.382812 288.390625 258.382812 C 288.242188 258.382812 288.097656 258.351562 287.960938 258.296875 C 287.824219 258.238281 287.703125 258.160156 287.601562 258.054688 C 287.496094 257.949219 287.414062 257.828125 287.359375 257.691406 C 287.300781 257.554688 287.273438 257.414062 287.273438 257.265625 C 287.273438 257.117188 287.300781 256.972656 287.359375 256.835938 C 287.414062 256.699219 287.496094 256.578125 287.601562 256.472656 C 287.703125 256.367188 287.824219 256.289062 287.960938 256.230469 C 288.097656 256.175781 288.242188 256.148438 288.390625 256.148438 Z M 292.859375 256.148438 C 293.007812 256.148438 293.152344 256.175781 293.289062 256.230469 C 293.425781 256.289062 293.546875 256.367188 293.652344 256.472656 C 293.757812 256.578125 293.835938 256.699219 293.894531 256.835938 C 293.949219 256.972656 293.980469 257.117188 293.980469 257.265625 C 293.980469 257.414062 293.949219 257.554688 293.894531 257.691406 C 293.835938 257.828125 293.757812 257.949219 293.652344 258.054688 C 293.546875 258.160156 293.425781 258.238281 293.289062 258.296875 C 293.152344 258.351562 293.007812 258.382812 292.859375 258.382812 C 292.710938 258.382812 292.570312 258.351562 292.433594 258.296875 C 292.296875 258.238281 292.175781 258.160156 292.070312 258.054688 C 291.964844 257.949219 291.886719 257.828125 291.828125 257.691406 C 291.773438 257.554688 291.742188 257.414062 291.742188 257.265625 C 291.742188 257.117188 291.773438 256.972656 291.828125 256.835938 C 291.886719 256.699219 291.964844 256.578125 292.070312 256.472656 C 292.175781 256.367188 292.296875 256.289062 292.433594 256.230469 C 292.570312 256.175781 292.710938 256.148438 292.859375 256.148438 Z M 297.332031 256.148438 C 297.480469 256.148438 297.621094 256.175781 297.757812 256.230469 C 297.894531 256.289062 298.015625 256.367188 298.121094 256.472656 C 298.226562 256.578125 298.308594 256.699219 298.363281 256.835938 C 298.421875 256.972656 298.449219 257.117188 298.449219 257.265625 C 298.449219 257.414062 298.421875 257.554688 298.363281 257.691406 C 298.308594 257.828125 298.226562 257.949219 298.121094 258.054688 C 298.015625 258.160156 297.894531 258.238281 297.757812 258.296875 C 297.621094 258.351562 297.480469 258.382812 297.332031 258.382812 C 297.183594 258.382812 297.039062 258.351562 296.902344 258.296875 C 296.765625 258.238281 296.644531 258.160156 296.542969 258.054688 C 296.4375 257.949219 296.355469 257.828125 296.300781 257.691406 C 296.242188 257.554688 296.214844 257.414062 296.214844 257.265625 C 296.214844 257.117188 296.242188 256.972656 296.300781 256.835938 C 296.355469 256.699219 296.4375 256.578125 296.542969 256.472656 C 296.644531 256.367188 296.765625 256.289062 296.902344 256.230469 C 297.039062 256.175781 297.183594 256.148438 297.332031 256.148438 Z M 301.800781 256.148438 C 301.949219 256.148438 302.09375 256.175781 302.230469 256.230469 C 302.367188 256.289062 302.488281 256.367188 302.59375 256.472656 C 302.699219 256.578125 302.777344 256.699219 302.835938 256.835938 C 302.890625 256.972656 302.917969 257.117188 302.917969 257.265625 C 302.917969 257.414062 302.890625 257.554688 302.835938 257.691406 C 302.777344 257.828125 302.699219 257.949219 302.59375 258.054688 C 302.488281 258.160156 302.367188 258.238281 302.230469 258.296875 C 302.09375 258.351562 301.949219 258.382812 301.800781 258.382812 C 301.652344 258.382812 301.511719 258.351562 301.375 258.296875 C 301.238281 258.238281 301.117188 258.160156 301.011719 258.054688 C 300.90625 257.949219 300.828125 257.828125 300.769531 257.691406 C 300.710938 257.554688 300.683594 257.414062 300.683594 257.265625 C 300.683594 257.117188 300.710938 256.972656 300.769531 256.835938 C 300.828125 256.699219 300.90625 256.578125 301.011719 256.472656 C 301.117188 256.367188 301.238281 256.289062 301.375 256.230469 C 301.511719 256.175781 301.652344 256.148438 301.800781 256.148438 Z M 306.273438 256.148438 C 306.421875 256.148438 306.5625 256.175781 306.699219 256.230469 C 306.835938 256.289062 306.957031 256.367188 307.0625 256.472656 C 307.167969 256.578125 307.25 256.699219 307.304688 256.835938 C 307.363281 256.972656 307.390625 257.117188 307.390625 257.265625 C 307.390625 257.414062 307.363281 257.554688 307.304688 257.691406 C 307.25 257.828125 307.167969 257.949219 307.0625 258.054688 C 306.957031 258.160156 306.835938 258.238281 306.699219 258.296875 C 306.5625 258.351562 306.421875 258.382812 306.273438 258.382812 C 306.125 258.382812 305.980469 258.351562 305.84375 258.296875 C 305.707031 258.238281 305.585938 258.160156 305.480469 258.054688 C 305.378906 257.949219 305.296875 257.828125 305.238281 257.691406 C 305.183594 257.554688 305.15625 257.414062 305.15625 257.265625 C 305.15625 257.117188 305.183594 256.972656 305.238281 256.835938 C 305.296875 256.699219 305.378906 256.578125 305.480469 256.472656 C 305.585938 256.367188 305.707031 256.289062 305.84375 256.230469 C 305.980469 256.175781 306.125 256.148438 306.273438 256.148438 Z M 310.742188 256.148438 C 310.890625 256.148438 311.035156 256.175781 311.171875 256.230469 C 311.308594 256.289062 311.429688 256.367188 311.535156 256.472656 C 311.636719 256.578125 311.71875 256.699219 311.777344 256.835938 C 311.832031 256.972656 311.859375 257.117188 311.859375 257.265625 C 311.859375 257.414062 311.832031 257.554688 311.777344 257.691406 C 311.71875 257.828125 311.636719 257.949219 311.535156 258.054688 C 311.429688 258.160156 311.308594 258.238281 311.171875 258.296875 C 311.035156 258.351562 310.890625 258.382812 310.742188 258.382812 C 310.59375 258.382812 310.453125 258.351562 310.316406 258.296875 C 310.179688 258.238281 310.058594 258.160156 309.953125 258.054688 C 309.847656 257.949219 309.765625 257.828125 309.710938 257.691406 C 309.652344 257.554688 309.625 257.414062 309.625 257.265625 C 309.625 257.117188 309.652344 256.972656 309.710938 256.835938 C 309.765625 256.699219 309.847656 256.578125 309.953125 256.472656 C 310.058594 256.367188 310.179688 256.289062 310.316406 256.230469 C 310.453125 256.175781 310.59375 256.148438 310.742188 256.148438 Z M 315.214844 256.148438 C 315.363281 256.148438 315.503906 256.175781 315.640625 256.230469 C 315.777344 256.289062 315.898438 256.367188 316.003906 256.472656 C 316.109375 256.578125 316.191406 256.699219 316.246094 256.835938 C 316.304688 256.972656 316.332031 257.117188 316.332031 257.265625 C 316.332031 257.414062 316.304688 257.554688 316.246094 257.691406 C 316.191406 257.828125 316.109375 257.949219 316.003906 258.054688 C 315.898438 258.160156 315.777344 258.238281 315.640625 258.296875 C 315.503906 258.351562 315.363281 258.382812 315.214844 258.382812 C 315.066406 258.382812 314.921875 258.351562 314.785156 258.296875 C 314.648438 258.238281 314.527344 258.160156 314.421875 258.054688 C 314.320312 257.949219 314.238281 257.828125 314.179688 257.691406 C 314.125 257.554688 314.097656 257.414062 314.097656 257.265625 C 314.097656 257.117188 314.125 256.972656 314.179688 256.835938 C 314.238281 256.699219 314.320312 256.578125 314.421875 256.472656 C 314.527344 256.367188 314.648438 256.289062 314.785156 256.230469 C 314.921875 256.175781 315.066406 256.148438 315.214844 256.148438 Z M 319.683594 256.148438 C 319.832031 256.148438 319.976562 256.175781 320.113281 256.230469 C 320.25 256.289062 320.371094 256.367188 320.476562 256.472656 C 320.578125 256.578125 320.660156 256.699219 320.71875 256.835938 C 320.773438 256.972656 320.800781 257.117188 320.800781 257.265625 C 320.800781 257.414062 320.773438 257.554688 320.71875 257.691406 C 320.660156 257.828125 320.578125 257.949219 320.476562 258.054688 C 320.371094 258.160156 320.25 258.238281 320.113281 258.296875 C 319.976562 258.351562 319.832031 258.382812 319.683594 258.382812 C 319.535156 258.382812 319.394531 258.351562 319.257812 258.296875 C 319.121094 258.238281 319 258.160156 318.894531 258.054688 C 318.789062 257.949219 318.707031 257.828125 318.652344 257.691406 C 318.59375 257.554688 318.566406 257.414062 318.566406 257.265625 C 318.566406 257.117188 318.59375 256.972656 318.652344 256.835938 C 318.707031 256.699219 318.789062 256.578125 318.894531 256.472656 C 319 256.367188 319.121094 256.289062 319.257812 256.230469 C 319.394531 256.175781 319.535156 256.148438 319.683594 256.148438 Z M 324.15625 256.148438 C 324.304688 256.148438 324.445312 256.175781 324.582031 256.230469 C 324.71875 256.289062 324.839844 256.367188 324.945312 256.472656 C 325.050781 256.578125 325.132812 256.699219 325.1875 256.835938 C 325.246094 256.972656 325.273438 257.117188 325.273438 257.265625 C 325.273438 257.414062 325.246094 257.554688 325.1875 257.691406 C 325.132812 257.828125 325.050781 257.949219 324.945312 258.054688 C 324.839844 258.160156 324.71875 258.238281 324.582031 258.296875 C 324.445312 258.351562 324.304688 258.382812 324.15625 258.382812 C 324.007812 258.382812 323.863281 258.351562 323.726562 258.296875 C 323.589844 258.238281 323.46875 258.160156 323.363281 258.054688 C 323.261719 257.949219 323.179688 257.828125 323.121094 257.691406 C 323.066406 257.554688 323.039062 257.414062 323.039062 257.265625 C 323.039062 257.117188 323.066406 256.972656 323.121094 256.835938 C 323.179688 256.699219 323.261719 256.578125 323.363281 256.472656 C 323.46875 256.367188 323.589844 256.289062 323.726562 256.230469 C 323.863281 256.175781 324.007812 256.148438 324.15625 256.148438 Z M 328.625 256.148438 C 328.773438 256.148438 328.917969 256.175781 329.054688 256.230469 C 329.191406 256.289062 329.3125 256.367188 329.417969 256.472656 C 329.519531 256.578125 329.601562 256.699219 329.660156 256.835938 C 329.714844 256.972656 329.742188 257.117188 329.742188 257.265625 C 329.742188 257.414062 329.714844 257.554688 329.660156 257.691406 C 329.601562 257.828125 329.519531 257.949219 329.417969 258.054688 C 329.3125 258.160156 329.191406 258.238281 329.054688 258.296875 C 328.917969 258.351562 328.773438 258.382812 328.625 258.382812 C 328.476562 258.382812 328.335938 258.351562 328.199219 258.296875 C 328.0625 258.238281 327.941406 258.160156 327.835938 258.054688 C 327.730469 257.949219 327.648438 257.828125 327.59375 257.691406 C 327.535156 257.554688 327.507812 257.414062 327.507812 257.265625 C 327.507812 257.117188 327.535156 256.972656 327.59375 256.835938 C 327.648438 256.699219 327.730469 256.578125 327.835938 256.472656 C 327.941406 256.367188 328.0625 256.289062 328.199219 256.230469 C 328.335938 256.175781 328.476562 256.148438 328.625 256.148438 Z M 328.625 256.148438 " fill-opacity="1" fill-rule="nonzero"/><path fill="#ffffff" d="M 44.25 257.265625 C 44.398438 257.265625 44.542969 257.292969 44.679688 257.347656 C 44.816406 257.40625 44.9375 257.488281 45.042969 257.589844 C 45.148438 257.695312 45.226562 257.816406 45.285156 257.953125 C 45.339844 258.089844 45.371094 258.234375 45.371094 258.382812 C 45.371094 258.53125 45.339844 258.671875 45.285156 258.808594 C 45.226562 258.945312 45.148438 259.066406 45.042969 259.171875 C 44.9375 259.277344 44.816406 259.359375 44.679688 259.414062 C 44.542969 259.472656 44.398438 259.5 44.25 259.5 C 44.101562 259.5 43.960938 259.472656 43.824219 259.414062 C 43.6875 259.359375 43.566406 259.277344 43.460938 259.171875 C 43.355469 259.066406 43.277344 258.945312 43.21875 258.808594 C 43.164062 258.671875 43.132812 258.53125 43.132812 258.382812 C 43.132812 258.234375 43.164062 258.089844 43.21875 257.953125 C 43.277344 257.816406 43.355469 257.695312 43.460938 257.589844 C 43.566406 257.488281 43.6875 257.40625 43.824219 257.347656 C 43.960938 257.292969 44.101562 257.265625 44.25 257.265625 Z M 48.722656 257.265625 C 48.871094 257.265625 49.011719 257.292969 49.148438 257.347656 C 49.289062 257.40625 49.40625 257.488281 49.511719 257.589844 C 49.617188 257.695312 49.699219 257.816406 49.753906 257.953125 C 49.8125 258.089844 49.839844 258.234375 49.839844 258.382812 C 49.839844 258.53125 49.8125 258.671875 49.753906 258.808594 C 49.699219 258.945312 49.617188 259.066406 49.511719 259.171875 C 49.40625 259.277344 49.289062 259.359375 49.148438 259.414062 C 49.011719 259.472656 48.871094 259.5 48.722656 259.5 C 48.574219 259.5 48.429688 259.472656 48.292969 259.414062 C 48.15625 259.359375 48.035156 259.277344 47.933594 259.171875 C 47.828125 259.066406 47.746094 258.945312 47.691406 258.808594 C 47.632812 258.671875 47.605469 258.53125 47.605469 258.382812 C 47.605469 258.234375 47.632812 258.089844 47.691406 257.953125 C 47.746094 257.816406 47.828125 257.695312 47.933594 257.589844 C 48.035156 257.488281 48.15625 257.40625 48.292969 257.347656 C 48.429688 257.292969 48.574219 257.265625 48.722656 257.265625 Z M 53.191406 257.265625 C 53.339844 257.265625 53.484375 257.292969 53.621094 257.347656 C 53.757812 257.40625 53.878906 257.488281 53.984375 257.589844 C 54.089844 257.695312 54.167969 257.816406 54.226562 257.953125 C 54.28125 258.089844 54.3125 258.234375 54.3125 258.382812 C 54.3125 258.53125 54.28125 258.671875 54.226562 258.808594 C 54.167969 258.945312 54.089844 259.066406 53.984375 259.171875 C 53.878906 259.277344 53.757812 259.359375 53.621094 259.414062 C 53.484375 259.472656 53.339844 259.5 53.191406 259.5 C 53.042969 259.5 52.902344 259.472656 52.765625 259.414062 C 52.628906 259.359375 52.507812 259.277344 52.402344 259.171875 C 52.296875 259.066406 52.21875 258.945312 52.160156 258.808594 C 52.105469 258.671875 52.074219 258.53125 52.074219 258.382812 C 52.074219 258.234375 52.105469 258.089844 52.160156 257.953125 C 52.21875 257.816406 52.296875 257.695312 52.402344 257.589844 C 52.507812 257.488281 52.628906 257.40625 52.765625 257.347656 C 52.902344 257.292969 53.042969 257.265625 53.191406 257.265625 Z M 57.664062 257.265625 C 57.8125 257.265625 57.953125 257.292969 58.089844 257.347656 C 58.226562 257.40625 58.347656 257.488281 58.453125 257.589844 C 58.558594 257.695312 58.640625 257.816406 58.695312 257.953125 C 58.753906 258.089844 58.78125 258.234375 58.78125 258.382812 C 58.78125 258.53125 58.753906 258.671875 58.695312 258.808594 C 58.640625 258.945312 58.558594 259.066406 58.453125 259.171875 C 58.347656 259.277344 58.226562 259.359375 58.089844 259.414062 C 57.953125 259.472656 57.8125 259.5 57.664062 259.5 C 57.515625 259.5 57.371094 259.472656 57.234375 259.414062 C 57.097656 259.359375 56.976562 259.277344 56.875 259.171875 C 56.769531 259.066406 56.6875 258.945312 56.632812 258.808594 C 56.574219 258.671875 56.546875 258.53125 56.546875 258.382812 C 56.546875 258.234375 56.574219 258.089844 56.632812 257.953125 C 56.6875 257.816406 56.769531 257.695312 56.875 257.589844 C 56.976562 257.488281 57.097656 257.40625 57.234375 257.347656 C 57.371094 257.292969 57.515625 257.265625 57.664062 257.265625 Z M 62.132812 257.265625 C 62.28125 257.265625 62.425781 257.292969 62.5625 257.347656 C 62.699219 257.40625 62.820312 257.488281 62.925781 257.589844 C 63.03125 257.695312 63.109375 257.816406 63.167969 257.953125 C 63.222656 258.089844 63.25 258.234375 63.25 258.382812 C 63.25 258.53125 63.222656 258.671875 63.167969 258.808594 C 63.109375 258.945312 63.03125 259.066406 62.925781 259.171875 C 62.820312 259.277344 62.699219 259.359375 62.5625 259.414062 C 62.425781 259.472656 62.28125 259.5 62.132812 259.5 C 61.984375 259.5 61.84375 259.472656 61.707031 259.414062 C 61.570312 259.359375 61.449219 259.277344 61.34375 259.171875 C 61.238281 259.066406 61.160156 258.945312 61.101562 258.808594 C 61.042969 258.671875 61.015625 258.53125 61.015625 258.382812 C 61.015625 258.234375 61.042969 258.089844 61.101562 257.953125 C 61.160156 257.816406 61.238281 257.695312 61.34375 257.589844 C 61.449219 257.488281 61.570312 257.40625 61.707031 257.347656 C 61.84375 257.292969 61.984375 257.265625 62.132812 257.265625 Z M 66.605469 257.265625 C 66.753906 257.265625 66.894531 257.292969 67.03125 257.347656 C 67.167969 257.40625 67.289062 257.488281 67.394531 257.589844 C 67.5 257.695312 67.582031 257.816406 67.636719 257.953125 C 67.695312 258.089844 67.722656 258.234375 67.722656 258.382812 C 67.722656 258.53125 67.695312 258.671875 67.636719 258.808594 C 67.582031 258.945312 67.5 259.066406 67.394531 259.171875 C 67.289062 259.277344 67.167969 259.359375 67.03125 259.414062 C 66.894531 259.472656 66.753906 259.5 66.605469 259.5 C 66.457031 259.5 66.3125 259.472656 66.175781 259.414062 C 66.039062 259.359375 65.917969 259.277344 65.816406 259.171875 C 65.710938 259.066406 65.628906 258.945312 65.570312 258.808594 C 65.515625 258.671875 65.488281 258.53125 65.488281 258.382812 C 65.488281 258.234375 65.515625 258.089844 65.570312 257.953125 C 65.628906 257.816406 65.710938 257.695312 65.816406 257.589844 C 65.917969 257.488281 66.039062 257.40625 66.175781 257.347656 C 66.3125 257.292969 66.457031 257.265625 66.605469 257.265625 Z M 71.074219 257.265625 C 71.222656 257.265625 71.367188 257.292969 71.503906 257.347656 C 71.640625 257.40625 71.761719 257.488281 71.867188 257.589844 C 71.96875 257.695312 72.050781 257.816406 72.109375 257.953125 C 72.164062 258.089844 72.191406 258.234375 72.191406 258.382812 C 72.191406 258.53125 72.164062 258.671875 72.109375 258.808594 C 72.050781 258.945312 71.96875 259.066406 71.867188 259.171875 C 71.761719 259.277344 71.640625 259.359375 71.503906 259.414062 C 71.367188 259.472656 71.222656 259.5 71.074219 259.5 C 70.925781 259.5 70.785156 259.472656 70.648438 259.414062 C 70.511719 259.359375 70.390625 259.277344 70.285156 259.171875 C 70.179688 259.066406 70.097656 258.945312 70.042969 258.808594 C 69.984375 258.671875 69.957031 258.53125 69.957031 258.382812 C 69.957031 258.234375 69.984375 258.089844 70.042969 257.953125 C 70.097656 257.816406 70.179688 257.695312 70.285156 257.589844 C 70.390625 257.488281 70.511719 257.40625 70.648438 257.347656 C 70.785156 257.292969 70.925781 257.265625 71.074219 257.265625 Z M 75.546875 257.265625 C 75.695312 257.265625 75.835938 257.292969 75.972656 257.347656 C 76.109375 257.40625 76.230469 257.488281 76.335938 257.589844 C 76.441406 257.695312 76.523438 257.816406 76.578125 257.953125 C 76.636719 258.089844 76.664062 258.234375 76.664062 258.382812 C 76.664062 258.53125 76.636719 258.671875 76.578125 258.808594 C 76.523438 258.945312 76.441406 259.066406 76.335938 259.171875 C 76.230469 259.277344 76.109375 259.359375 75.972656 259.414062 C 75.835938 259.472656 75.695312 259.5 75.546875 259.5 C 75.398438 259.5 75.253906 259.472656 75.117188 259.414062 C 74.980469 259.359375 74.859375 259.277344 74.753906 259.171875 C 74.652344 259.066406 74.570312 258.945312 74.511719 258.808594 C 74.457031 258.671875 74.429688 258.53125 74.429688 258.382812 C 74.429688 258.234375 74.457031 258.089844 74.511719 257.953125 C 74.570312 257.816406 74.652344 257.695312 74.753906 257.589844 C 74.859375 257.488281 74.980469 257.40625 75.117188 257.347656 C 75.253906 257.292969 75.398438 257.265625 75.546875 257.265625 Z M 80.015625 257.265625 C 80.164062 257.265625 80.308594 257.292969 80.445312 257.347656 C 80.582031 257.40625 80.703125 257.488281 80.808594 257.589844 C 80.910156 257.695312 80.992188 257.816406 81.050781 257.953125 C 81.105469 258.089844 81.132812 258.234375 81.132812 258.382812 C 81.132812 258.53125 81.105469 258.671875 81.050781 258.808594 C 80.992188 258.945312 80.910156 259.066406 80.808594 259.171875 C 80.703125 259.277344 80.582031 259.359375 80.445312 259.414062 C 80.308594 259.472656 80.164062 259.5 80.015625 259.5 C 79.867188 259.5 79.726562 259.472656 79.589844 259.414062 C 79.453125 259.359375 79.332031 259.277344 79.226562 259.171875 C 79.121094 259.066406 79.039062 258.945312 78.984375 258.808594 C 78.925781 258.671875 78.898438 258.53125 78.898438 258.382812 C 78.898438 258.234375 78.925781 258.089844 78.984375 257.953125 C 79.039062 257.816406 79.121094 257.695312 79.226562 257.589844 C 79.332031 257.488281 79.453125 257.40625 79.589844 257.347656 C 79.726562 257.292969 79.867188 257.265625 80.015625 257.265625 Z M 84.488281 257.265625 C 84.636719 257.265625 84.777344 257.292969 84.914062 257.347656 C 85.050781 257.40625 85.171875 257.488281 85.277344 257.589844 C 85.382812 257.695312 85.464844 257.816406 85.519531 257.953125 C 85.578125 258.089844 85.605469 258.234375 85.605469 258.382812 C 85.605469 258.53125 85.578125 258.671875 85.519531 258.808594 C 85.464844 258.945312 85.382812 259.066406 85.277344 259.171875 C 85.171875 259.277344 85.050781 259.359375 84.914062 259.414062 C 84.777344 259.472656 84.636719 259.5 84.488281 259.5 C 84.339844 259.5 84.195312 259.472656 84.058594 259.414062 C 83.921875 259.359375 83.800781 259.277344 83.695312 259.171875 C 83.59375 259.066406 83.511719 258.945312 83.453125 258.808594 C 83.398438 258.671875 83.371094 258.53125 83.371094 258.382812 C 83.371094 258.234375 83.398438 258.089844 83.453125 257.953125 C 83.511719 257.816406 83.59375 257.695312 83.695312 257.589844 C 83.800781 257.488281 83.921875 257.40625 84.058594 257.347656 C 84.195312 257.292969 84.339844 257.265625 84.488281 257.265625 Z M 84.488281 257.265625 " fill-opacity="1" fill-rule="nonzero"/></svg>